<?xml version="1.0" encoding="UTF-8"?>
<svg width="1024" height="1024" viewBox="0 0 1024 1024" fill="none" xmlns="http://www.w3.org/2000/svg">
  <defs>
    <linearGradient id="bg" x1="120" y1="80" x2="904" y2="944" gradientUnits="userSpaceOnUse">
      <stop offset="0" stop-color="#0B1020"/>
      <stop offset="0.44" stop-color="#111827"/>
      <stop offset="1" stop-color="#042F2E"/>
    </linearGradient>
    <linearGradient id="edge" x1="218" y1="138" x2="820" y2="858" gradientUnits="userSpaceOnUse">
      <stop offset="0" stop-color="#67E8F9"/>
      <stop offset="0.52" stop-color="#8B5CF6"/>
      <stop offset="1" stop-color="#34D399"/>
    </linearGradient>
    <linearGradient id="core" x1="320" y1="226" x2="704" y2="798" gradientUnits="userSpaceOnUse">
      <stop offset="0" stop-color="#FFFFFF"/>
      <stop offset="0.45" stop-color="#C4B5FD"/>
      <stop offset="1" stop-color="#67E8F9"/>
    </linearGradient>
    <filter id="glow" x="100" y="76" width="824" height="872" filterUnits="userSpaceOnUse" color-interpolation-filters="sRGB">
      <feGaussianBlur stdDeviation="22" result="blur"/>
      <feColorMatrix in="blur" type="matrix" values="0 0 0 0 0.247 0 0 0 0 0.902 0 0 0 0 0.961 0 0 0 0.42 0"/>
      <feBlend in="SourceGraphic"/>
    </filter>
  </defs>
  <rect width="1024" height="1024" rx="224" fill="url(#bg)"/>
  <path d="M512 124L828 306V670L512 852L196 670V306L512 124Z" fill="#020617" fill-opacity="0.6" stroke="url(#edge)" stroke-width="34"/>
  <path d="M512 190L770 338V636L512 784L254 636V338L512 190Z" stroke="#E0F2FE" stroke-opacity="0.16" stroke-width="18"/>
  <g filter="url(#glow)">
    <path d="M332 702V314H430L598 544V314H698V710H600L432 480V702H332Z" fill="url(#core)"/>
    <path d="M418 718L668 286H740L490 718H418Z" fill="#22D3EE" fill-opacity="0.9"/>
  </g>
  <path d="M278 330L196 306M746 330L828 306M278 646L196 670M746 646L828 670" stroke="#67E8F9" stroke-opacity="0.5" stroke-width="22" stroke-linecap="round"/>
  <circle cx="512" cy="124" r="24" fill="#67E8F9"/>
  <circle cx="828" cy="306" r="24" fill="#A78BFA"/>
  <circle cx="828" cy="670" r="24" fill="#34D399"/>
  <circle cx="512" cy="852" r="24" fill="#67E8F9"/>
  <circle cx="196" cy="670" r="24" fill="#A78BFA"/>
  <circle cx="196" cy="306" r="24" fill="#34D399"/>
</svg>
